<svg width="331" height="271" viewBox="0 0 331 271" fill="none" xmlns="http://www.w3.org/2000/svg">
<g clip-path="url(#clip0)">
<path d="M194.379 69.5709H184.566C184.065 69.5704 183.586 69.3783 183.232 69.0369C182.878 68.6954 182.679 68.2325 182.678 67.7497V58.2792C182.679 57.7964 182.878 57.3335 183.232 56.992C183.586 56.6506 184.065 56.4586 184.566 56.458H194.379C194.879 56.4586 195.359 56.6506 195.713 56.992C196.067 57.3335 196.266 57.7964 196.266 58.2792V67.7497C196.266 68.2325 196.067 68.6954 195.713 69.0369C195.359 69.3783 194.879 69.5704 194.379 69.5709V69.5709ZM184.566 57.1865C184.265 57.1868 183.978 57.302 183.765 57.5069C183.553 57.7118 183.434 57.9895 183.433 58.2792V67.7497C183.434 68.0394 183.553 68.3172 183.765 68.522C183.978 68.7269 184.265 68.8421 184.566 68.8424H194.379C194.679 68.8421 194.967 68.7269 195.179 68.522C195.392 68.3172 195.511 68.0394 195.511 67.7497V58.2792C195.511 57.9895 195.392 57.7118 195.179 57.5069C194.967 57.302 194.679 57.1868 194.379 57.1865H184.566Z" fill="#E6E6E6"/>
<path d="M80.0162 13.1129H70.2029C69.7025 13.1124 69.2228 12.9203 68.869 12.5789C68.5153 12.2374 68.3162 11.7745 68.3157 11.2917V1.82124C68.3162 1.33838 68.5153 0.875466 68.869 0.534038C69.2228 0.192609 69.7025 0.0005524 70.2029 0H80.0162C80.5165 0.0005524 80.9962 0.192609 81.35 0.534038C81.7038 0.875466 81.9028 1.33838 81.9033 1.82124V11.2917C81.9028 11.7745 81.7038 12.2374 81.35 12.5789C80.9962 12.9203 80.5165 13.1124 80.0162 13.1129V13.1129ZM70.2029 0.728495C69.9026 0.728811 69.6148 0.84404 69.4026 1.0489C69.1903 1.25376 69.0709 1.53152 69.0705 1.82124V11.2917C69.0709 11.5814 69.1903 11.8591 69.4026 12.064C69.6148 12.2689 69.9026 12.3841 70.2029 12.3844H80.0162C80.3164 12.3841 80.6042 12.2689 80.8165 12.064C81.0287 11.8591 81.1481 11.5814 81.1485 11.2917V1.82124C81.1481 1.53152 81.0287 1.25376 80.8165 1.0489C80.6042 0.84404 80.3164 0.728811 80.0162 0.728495H70.2029Z" fill="#E6E6E6"/>
<path d="M188.34 64.8356H178.527C178.026 64.835 177.547 64.6429 177.193 64.3015C176.839 63.9601 176.64 63.4972 176.639 63.0143V53.5439C176.64 53.061 176.839 52.5981 177.193 52.2567C177.547 51.9153 178.026 51.7232 178.527 51.7227H188.34C188.84 51.7232 189.32 51.9153 189.674 52.2567C190.027 52.5981 190.226 53.061 190.227 53.5439V63.0143C190.226 63.4972 190.027 63.9601 189.674 64.3015C189.32 64.6429 188.84 64.835 188.34 64.8356V64.8356ZM178.527 52.4512C178.226 52.4515 177.939 52.5667 177.726 52.7716C177.514 52.9764 177.395 53.2542 177.394 53.5439V63.0143C177.395 63.304 177.514 63.5818 177.726 63.7867C177.939 63.9915 178.226 64.1067 178.527 64.1071H188.34C188.64 64.1067 188.928 63.9915 189.14 63.7867C189.352 63.5818 189.472 63.304 189.472 63.0143V53.5439C189.472 53.2542 189.352 52.9764 189.14 52.7716C188.928 52.5667 188.64 52.4515 188.34 52.4512H178.527Z" fill="#E6E6E6"/>
<path d="M17.7395 143.878H7.92624C7.4259 143.877 6.94622 143.685 6.59244 143.344C6.23865 143.002 6.03963 142.539 6.03906 142.056V132.586C6.03963 132.103 6.23865 131.64 6.59244 131.299C6.94622 130.957 7.4259 130.765 7.92624 130.765H17.7395C18.2399 130.765 18.7196 130.957 19.0733 131.299C19.4271 131.64 19.6261 132.103 19.6267 132.586V142.056C19.6261 142.539 19.4271 143.002 19.0733 143.344C18.7196 143.685 18.2399 143.877 17.7395 143.878V143.878ZM7.92624 131.493C7.62603 131.493 7.33822 131.609 7.12594 131.814C6.91366 132.018 6.79426 132.296 6.79393 132.586V142.056C6.79426 142.346 6.91366 142.624 7.12594 142.829C7.33822 143.034 7.62603 143.149 7.92624 143.149H17.7395C18.0397 143.149 18.3276 143.034 18.5398 142.829C18.7521 142.624 18.8715 142.346 18.8718 142.056V132.586C18.8715 132.296 18.7521 132.018 18.5398 131.814C18.3276 131.609 18.0397 131.493 17.7395 131.493H7.92624Z" fill="#E6E6E6"/>
<path d="M11.7005 139.142H1.88717C1.38684 139.142 0.907163 138.95 0.553373 138.608C0.199583 138.267 0.0005724 137.804 0 137.321V127.851C0.0005724 127.368 0.199583 126.905 0.553373 126.563C0.907163 126.222 1.38684 126.03 1.88717 126.029H11.7005C12.2008 126.03 12.6805 126.222 13.0343 126.563C13.3881 126.905 13.5871 127.368 13.5877 127.851V137.321C13.5871 137.804 13.3881 138.267 13.0343 138.608C12.6805 138.95 12.2008 139.142 11.7005 139.142V139.142ZM1.88717 126.758C1.58697 126.758 1.29915 126.873 1.08688 127.078C0.874599 127.283 0.755198 127.561 0.75487 127.851V137.321C0.755198 137.611 0.874599 137.888 1.08688 138.093C1.29915 138.298 1.58697 138.413 1.88717 138.414H11.7005C12.0007 138.413 12.2885 138.298 12.5008 138.093C12.7131 137.888 12.8325 137.611 12.8328 137.321V127.851C12.8325 127.561 12.7131 127.283 12.5008 127.078C12.2885 126.873 12.0007 126.758 11.7005 126.758H1.88717Z" fill="#E6E6E6"/>
<path d="M34.8861 31.3392H125.703C130.085 31.3392 134.337 32.7781 137.76 35.4194C141.183 38.0607 143.572 41.7472 144.536 45.8729L190.424 242.3C190.924 244.442 190.933 246.664 190.45 248.81C189.966 250.957 189.002 252.975 187.625 254.723C186.248 256.472 184.491 257.908 182.478 258.932C180.464 259.956 178.243 260.543 175.97 260.651L82.6102 265.09C77.6111 265.328 72.6931 263.802 68.774 260.798C64.8548 257.793 62.2023 253.515 61.3114 248.762L35.281 109.886L33.3445 110.42L28.3638 84.098L30.3572 83.6171L23.0912 44.8519C22.78 43.1915 22.8521 41.4853 23.3026 39.8549C23.753 38.2245 24.5705 36.7101 25.697 35.4196C26.8234 34.1291 28.231 33.0944 29.8194 32.3891C31.4077 31.6838 33.1377 31.3253 34.8861 31.3393V31.3392Z" fill="#3F3D56"/>
<path d="M113.747 35.5732H124.348C127.392 35.5732 130.345 36.5781 132.716 38.4209C135.087 40.2637 136.734 42.8337 137.383 45.7042L181.429 240.528C181.683 241.65 181.682 242.811 181.428 243.933C181.174 245.054 180.672 246.11 179.957 247.027C179.241 247.944 178.329 248.702 177.283 249.248C176.236 249.794 175.08 250.115 173.893 250.19L80.8346 256.076C78.2093 256.242 75.6125 255.469 73.5398 253.906C71.4671 252.342 70.0637 250.096 69.5973 247.597L32.0125 46.2276C31.7693 44.9242 31.8254 43.5852 32.1769 42.3051C32.5284 41.0249 33.1668 39.8349 34.0469 38.8188C34.927 37.8027 36.0275 36.9855 37.2707 36.4247C38.5139 35.8639 39.8694 35.5733 41.2417 35.5733H51.2984C52.2718 35.5733 53.218 35.8829 53.9905 36.4543C54.7631 37.0257 55.319 37.8269 55.572 38.734V38.734C55.7954 39.5347 56.2861 40.2421 56.9681 40.7465C57.6502 41.251 58.4855 41.5244 59.3448 41.5244H107.088C108.77 41.5244 110.391 40.9114 111.626 39.8081C112.86 38.7047 113.618 37.1923 113.747 35.5733L113.747 35.5732Z" fill="white"/>
<path d="M39.2532 68.6992H140.208L150.963 115.466L48.689 117.288L39.2532 68.6992Z" fill="#38972E"/>
<path d="M135.122 157.266H158.889L159.644 161.657H135.876L135.122 157.266Z" fill="#38972E"/>
<path d="M154.459 134.865L53.6599 136.925L53.67 137.383L154.469 135.323L154.459 134.865Z" fill="#2F2E41"/>
<path d="M157.542 148.369L54.8455 150.658L54.8564 151.116L157.553 148.827L157.542 148.369Z" fill="#2F2E41"/>
<path d="M144.935 204.253H168.702L169.457 208.644H145.69L144.935 204.253Z" fill="#38972E"/>
<path d="M164.273 181.853L63.4734 183.913L63.4834 184.371L164.283 182.311L164.273 181.853Z" fill="#2F2E41"/>
<path d="M167.356 195.358L64.6587 197.646L64.6696 198.104L167.367 195.815L167.356 195.358Z" fill="#2F2E41"/>
<path d="M232.334 266.34L227.837 266.339L225.697 249.6L232.334 249.6L232.334 266.34Z" fill="#A0616A"/>
<path d="M233.48 270.547L218.98 270.547V270.37C218.98 268.925 219.575 267.54 220.633 266.518C221.692 265.497 223.127 264.923 224.624 264.923H224.624L233.481 264.923L233.48 270.547Z" fill="#2F2E41"/>
<path d="M288.2 263.498L283.823 264.493L277.764 248.672L284.225 247.204L288.2 263.498Z" fill="#A0616A"/>
<path d="M290.316 267.339L276.201 270.547L276.159 270.375C275.816 268.969 276.066 267.489 276.854 266.26C277.641 265.032 278.902 264.156 280.359 263.824L280.36 263.824L288.98 261.865L290.316 267.339Z" fill="#2F2E41"/>
<path d="M231.415 195.734C231.423 194.861 231.691 174.274 237.539 166.49L237.625 166.375L258.004 169.088L257.548 173.409C258.444 174.251 265.495 181.361 267.531 198.197L289.161 254.261L279.105 255.143L249.339 193.943L233.586 260.467H223.618L231.415 195.734Z" fill="#2F2E41"/>
<path d="M235.151 167.249L237.143 157.156C236.754 156.672 235.026 154.346 235.41 151.619C235.661 149.839 236.762 148.279 238.682 146.98L243.845 135.354L243.915 135.314C244.262 135.116 252.483 130.529 256.965 134.857C257.077 134.941 268.112 143.394 263.681 154.798L258.21 170.637L235.151 167.249Z" fill="#CCCCCC"/>
<path d="M228.221 180.904C228.758 180.845 229.275 180.672 229.736 180.399C230.197 180.126 230.59 179.759 230.887 179.324C231.185 178.888 231.38 178.395 231.459 177.879C231.538 177.363 231.499 176.836 231.344 176.336L242.007 168.922L235.624 166.579L226.477 173.979C225.624 174.285 224.917 174.883 224.49 175.659C224.064 176.435 223.947 177.335 224.162 178.189C224.377 179.042 224.908 179.79 225.657 180.291C226.405 180.791 227.317 181.009 228.221 180.904V180.904Z" fill="#A0616A"/>
<path d="M230.18 168.91L246.459 156.533L241.62 140.576C241.392 139.82 241.327 139.027 241.43 138.247C241.533 137.466 241.802 136.714 242.219 136.038C242.606 135.401 243.126 134.848 243.746 134.416C244.367 133.984 245.074 133.681 245.822 133.528C248.609 132.959 251.139 134.465 253.34 138.005L253.357 138.037C253.721 138.896 262.201 159.127 255.726 163.454C249.392 167.686 234.703 173.846 234.555 173.908L234.383 173.98L230.18 168.91Z" fill="#CCCCCC"/>
<path d="M251.816 130.649C257.262 130.649 261.677 126.388 261.677 121.132C261.677 115.876 257.262 111.615 251.816 111.615C246.369 111.615 241.954 115.876 241.954 121.132C241.954 126.388 246.369 130.649 251.816 130.649Z" fill="#A0616A"/>
<path d="M267.276 117.735C272.094 117.735 276 113.966 276 109.316C276 104.666 272.094 100.896 267.276 100.896C262.458 100.896 258.552 104.666 258.552 109.316C258.552 113.966 262.458 117.735 267.276 117.735Z" fill="#2F2E41"/>
<path d="M274.801 116.288C273.672 117.075 272.364 117.59 270.986 117.79C269.608 117.99 268.201 117.868 266.882 117.435C265.563 117.002 264.37 116.271 263.404 115.302C262.438 114.333 261.727 113.155 261.329 111.867C261.479 113.022 261.876 114.134 262.495 115.133C263.113 116.132 263.939 116.997 264.921 117.673C265.903 118.348 267.02 118.82 268.201 119.058C269.381 119.296 270.6 119.295 271.78 119.056C272.96 118.816 274.076 118.344 275.058 117.667C276.039 116.99 276.864 116.124 277.481 115.124C278.098 114.124 278.494 113.012 278.643 111.857C278.792 110.702 278.691 109.53 278.347 108.414C278.543 109.913 278.317 111.435 277.693 112.82C277.069 114.205 276.07 115.403 274.801 116.288V116.288Z" fill="#2F2E41"/>
<path d="M240.372 116.297C241.895 113.666 242.478 112.567 244.441 110.967C246.178 109.552 248.314 109.136 250.037 110.477C252.075 109.627 254.343 109.434 256.503 109.927C258.664 110.42 260.602 111.573 262.03 113.214C263.458 114.855 264.299 116.896 264.429 119.035C264.559 121.174 263.97 123.296 262.751 125.087C261.531 126.877 259.746 128.24 257.66 128.974C255.573 129.707 253.298 129.771 251.171 129.157C249.044 128.542 247.179 127.282 245.853 125.564C244.527 123.845 243.811 121.759 243.811 119.617C243.813 119.24 243.836 118.865 243.882 118.491C242.384 118.288 241.869 116.5 240.372 116.297Z" fill="#2F2E41"/>
<path d="M330.623 271H186.82C186.72 271 186.624 270.962 186.553 270.893C186.482 270.825 186.442 270.732 186.442 270.636C186.442 270.539 186.482 270.446 186.553 270.378C186.624 270.31 186.72 270.271 186.82 270.271H330.623C330.723 270.271 330.819 270.31 330.889 270.378C330.96 270.446 331 270.539 331 270.636C331 270.732 330.96 270.825 330.889 270.893C330.819 270.962 330.723 271 330.623 271Z" fill="#3F3D56"/>
</g>
<defs>
<clipPath id="clip0">
<rect width="331" height="271" fill="white"/>
</clipPath>
</defs>
</svg>
