<svg width="342" height="276" viewBox="0 0 342 276" fill="none" xmlns="http://www.w3.org/2000/svg">
<rect x="11" width="331" height="271" fill="white"/>
<path d="M48.7908 245.151L48.3818 245.023C48.2919 244.995 39.3466 242.144 35.1563 235.68C30.9657 229.216 33.0176 221.432 33.0389 221.354L33.1354 221L33.5443 221.128C33.6341 221.156 42.5792 224.007 46.7698 230.471C50.9603 236.935 48.9084 244.719 48.8872 244.796L48.7908 245.151ZM35.8273 235.379C39.3701 240.845 46.4389 243.646 48.2299 244.286C48.5705 242.689 49.6384 236.232 46.0988 230.772C42.5595 225.312 35.4879 222.506 33.6961 221.865C33.3554 223.463 32.2878 229.919 35.8273 235.379V235.379Z" fill="#38972E"/>
<path d="M38.3587 233.516C45.8893 237.285 48.7896 244.771 48.7896 244.771C48.7896 244.771 39.4803 246.146 31.9497 242.377C24.4191 238.609 21.5188 231.123 21.5188 231.123C21.5188 231.123 30.8281 229.747 38.3587 233.516Z" fill="#38972E"/>
<path d="M272.101 180.687C287.255 180.687 299.54 178.416 299.54 175.615C299.54 172.814 287.255 170.543 272.101 170.543C256.947 170.543 244.662 172.814 244.662 175.615C244.662 178.416 256.947 180.687 272.101 180.687Z" fill="#141010"/>
<path d="M242.028 184.376L213.432 244.603L214.141 244.835L242.737 184.609L242.028 184.376Z" fill="#141010"/>
<path d="M301.418 184.374L300.709 184.606L329.292 244.837L330 244.605L301.418 184.374Z" fill="#141010"/>
<path d="M272.101 184.49H271.339V244.721H272.101V184.49Z" fill="#141010"/>
<path d="M237.973 206.08L237.632 206.647L266.595 218.694L266.936 218.126L237.973 206.08Z" fill="#141010"/>
<path d="M305.467 206.081L276.503 218.127L276.844 218.694L305.807 206.648L305.467 206.081Z" fill="#141010"/>
<path d="M234.563 139.635C234.563 139.635 223.13 129.807 220.081 135.83C217.033 141.854 231.514 145.024 231.514 145.024L234.563 139.635Z" fill="#FFB8B8"/>
<path d="M259.334 156.752L244.471 174.505L228.847 192.574L224.273 244.88L239.898 246.465C239.898 246.465 237.612 232.2 241.804 223.64C245.996 215.081 245.996 199.548 245.996 199.548L273.053 172.286L288.297 194.159L304.684 246.465L318.404 245.514C318.404 245.514 313.449 221.421 314.212 218.885C314.974 216.349 306.209 195.11 306.209 195.11L299.349 153.582C299.349 153.582 268.099 149.778 259.334 156.752Z" fill="#2F2E41"/>
<path d="M265.804 109.899C271.853 109.899 276.756 105.821 276.756 100.79C276.756 95.7583 271.853 91.6797 265.804 91.6797C259.756 91.6797 254.853 95.7583 254.853 100.79C254.853 105.821 259.756 109.899 265.804 109.899Z" fill="#FFB8B8"/>
<path d="M273.053 103.812L281.056 110.787L283.343 121.565L263.145 124.418L264.669 114.591C264.669 114.591 264.288 109.836 262.764 108.885C261.239 107.934 273.053 103.812 273.053 103.812Z" fill="#FFB8B8"/>
<path d="M262.764 115.859L264.621 114.116L270.767 118.712L281.056 110.787L296.681 154.534C296.681 154.534 286.773 151.681 277.246 155.485C267.718 159.289 255.142 158.338 255.142 158.338L255.523 122.833L262.764 115.859Z" fill="#575A89"/>
<path d="M251.712 122.833L264.481 113.116C264.481 113.116 268.861 118.395 266.956 128.539C265.05 138.684 263.526 158.655 256.666 164.044C249.807 169.433 247.139 171.335 247.139 171.335L253.999 148.511C253.999 148.511 248.664 125.369 251.712 122.833Z" fill="#F2C94C"/>
<path d="M277.401 107.602C277.401 107.602 300.111 105.715 300.492 107.934C300.873 110.153 298.206 135.513 298.206 135.513C298.206 135.513 321.833 161.825 311.925 166.897C307.304 169.262 303.312 164.067 297.634 157.545C291.136 150.081 283.191 140.715 282.581 136.147C281.438 127.588 277.401 107.602 277.401 107.602Z" fill="#F2C94C"/>
<path d="M252.855 131.709L250.95 144.072L234.182 138.049L228.846 147.242L256.285 155.801C256.285 155.801 261.239 133.928 252.855 131.709Z" fill="#F2C94C"/>
<path d="M225.798 243.295L214.746 258.194C214.746 258.194 193.786 267.704 201.027 270.24C208.268 272.776 225.798 267.387 227.703 264.217C229.609 261.047 230.371 260.413 231.133 261.047C231.895 261.681 241.423 259.145 241.804 258.194C242.185 257.243 241.804 246.465 238.374 245.197C234.944 243.929 225.798 243.295 225.798 243.295Z" fill="#2F2E41"/>
<path d="M305.065 244.88L307.352 256.609L310.019 264.851C310.019 264.851 311.925 276.898 321.071 275.947C325.644 275.471 327.264 272.777 327.74 270.201C328.166 267.751 327.63 265.252 326.213 263.075L321.071 255.024L316.498 244.246L305.065 244.88Z" fill="#2F2E41"/>
<path d="M254.862 102.457C254.862 102.457 253.374 101.12 253.525 99.4465C253.624 98.4945 253.551 97.5356 253.308 96.6017C253.308 96.6017 253.773 93.8625 254.461 92.2748C255.149 90.6871 254.569 90.1346 257.526 89.2678C260.482 88.401 258.6 85.2665 267.316 87.7649C267.648 88.0434 268.071 88.2339 268.533 88.3125C268.994 88.391 269.473 88.3541 269.91 88.2063C271.519 87.7161 272.489 89.5551 272.489 89.5551C272.489 89.5551 273.492 88.87 274.056 89.5822C274.619 90.2945 277.343 88.6712 278.342 93.8525C279.341 99.0339 275.912 103.654 275.912 103.654C275.912 103.654 275.43 95.363 269.77 95.2127C264.109 95.0624 257.707 93.2787 256.913 96.7702C256.498 98.7258 255.81 100.634 254.862 102.457V102.457Z" fill="#2F2E41"/>
<path d="M294.507 150.121C294.507 150.121 280.759 157.62 287.3 161.24C293.84 164.861 300.299 153.623 300.299 153.623L294.507 150.121Z" fill="#FFB8B8"/>
<path d="M297.824 107.934C297.824 107.934 301.254 106.349 302.397 109.519C303.541 112.689 315.355 137.099 315.355 137.099L300.492 156.119L289.821 149.779L302.778 137.099L294.013 128.223L297.824 107.934Z" fill="#F2C94C"/>
<path d="M226.369 113.485H225.97V104.394C225.97 103.703 225.807 103.019 225.489 102.381C225.171 101.743 224.705 101.162 224.118 100.674C223.53 100.185 222.833 99.7977 222.066 99.5333C221.298 99.2689 220.476 99.1328 219.645 99.1328H196.491C195.66 99.1328 194.838 99.2689 194.07 99.5333C193.303 99.7977 192.606 100.185 192.018 100.674C191.431 101.162 190.965 101.743 190.647 102.381C190.329 103.019 190.166 103.703 190.166 104.394V154.268C190.166 154.959 190.329 155.643 190.647 156.282C190.965 156.92 191.431 157.5 192.018 157.989C192.606 158.477 193.303 158.865 194.07 159.129C194.838 159.394 195.66 159.53 196.491 159.53H219.645C220.476 159.53 221.298 159.394 222.066 159.129C222.833 158.865 223.53 158.477 224.118 157.989C224.705 157.5 225.171 156.92 225.489 156.282C225.807 155.643 225.97 154.959 225.97 154.268V119.956H226.369V113.485Z" fill="white"/>
<path d="M219.751 100.627H216.728C216.867 100.91 216.92 101.218 216.883 101.522C216.845 101.827 216.718 102.119 216.513 102.373C216.308 102.627 216.03 102.836 215.706 102.98C215.381 103.123 215.018 103.199 214.65 103.199H201.386C201.018 103.199 200.655 103.123 200.33 102.98C200.006 102.836 199.728 102.627 199.523 102.373C199.318 102.119 199.191 101.827 199.153 101.522C199.116 101.218 199.169 100.91 199.308 100.627H196.485C195.232 100.627 194.031 101.041 193.145 101.778C192.259 102.515 191.761 103.514 191.761 104.556V154.357C191.761 154.873 191.883 155.384 192.121 155.86C192.358 156.337 192.706 156.77 193.145 157.135C193.583 157.5 194.104 157.79 194.677 157.987C195.25 158.184 195.865 158.286 196.485 158.286H219.751C220.371 158.286 220.985 158.184 221.558 157.987C222.131 157.79 222.652 157.5 223.091 157.135C223.529 156.77 223.877 156.337 224.115 155.86C224.352 155.384 224.474 154.873 224.474 154.357V104.556C224.474 103.514 223.977 102.515 223.091 101.778C222.205 101.041 221.003 100.627 219.751 100.627V100.627Z" fill="#38972E"/>
<path d="M208.044 124.926L213.015 132.087L217.985 139.249H208.044H198.103L203.073 132.087L208.044 124.926Z" fill="white"/>
<path d="M208.02 130.11L210.275 133.359L212.53 136.608H208.02H203.511L205.766 133.359L208.02 130.11Z" fill="#F2C94C"/>
<path d="M208.02 119.546L210.275 122.795L212.53 126.043H208.02H203.511L205.766 122.795L208.02 119.546Z" fill="#F2C94C"/>
<path opacity="0.2" d="M110.865 150.301L143.656 197.545L176.446 244.788H110.865H45.2842L78.0747 197.545L110.865 150.301Z" fill="#38972E"/>
<path d="M110.711 184.504L125.586 205.935L140.461 227.367H110.711H80.9614L95.8362 205.935L110.711 184.504Z" fill="#F2C94C"/>
<path d="M110.711 114.814L125.586 136.246L140.461 157.677H110.711H80.9614L95.8362 136.246L110.711 114.814Z" fill="#F2C94C"/>
<path d="M213.793 244.404H0V245.038H213.793V244.404Z" fill="#141010"/>
<path d="M65.933 122.863C64.4816 121.479 63.1113 119.245 62.3089 117.444C61.5058 119.245 60.1355 121.479 58.6841 122.863L61.9278 121.887V136.148H62.69V121.887L65.933 122.863Z" fill="#38972E"/>
<path d="M170.543 170.255C169.091 168.87 167.721 166.636 166.919 164.836C166.116 166.636 164.745 168.87 163.294 170.255L166.538 169.279V183.539H167.3V169.279L170.543 170.255Z" fill="#38972E"/>
<path d="M137.769 97.2139C136.318 94.3485 134.947 89.7257 134.145 86C133.342 89.7257 131.971 94.3485 130.52 97.2139L133.764 95.1943V124.703H134.526V95.1944L137.769 97.2139Z" fill="#38972E"/>
</svg>
