<svg width="121" height="122" viewBox="0 0 121 122" fill="none" xmlns="http://www.w3.org/2000/svg">
<path d="M60.5 122C93.9132 122 121 120.409 121 118.447C121 116.484 93.9132 114.894 60.5 114.894C27.0868 114.894 0 116.484 0 118.447C0 120.409 27.0868 122 60.5 122Z" fill="#E6E6E6"/>
<path d="M68.5844 28.1475H67.9336V10.3187C67.9336 7.58204 66.8463 4.95742 64.911 3.02229C62.9757 1.08715 60.3509 0 57.6139 0H19.8381C17.1011 0 14.4763 1.08715 12.541 3.02229C10.6057 4.95742 9.51843 7.58204 9.51843 10.3187V108.128C9.51843 110.865 10.6057 113.489 12.541 115.425C14.4763 117.36 17.1011 118.447 19.8381 118.447H57.6139C60.3509 118.447 62.9757 117.36 64.911 115.425C66.8463 113.489 67.9336 110.865 67.9336 108.128V40.8382H68.5844V28.1475Z" fill="#3F3D56"/>
<path d="M65.7372 10.3908V108.056C65.7371 110.1 64.9251 112.06 63.4798 113.505C62.0345 114.95 60.0743 115.762 58.0303 115.762H20.0733C18.0294 115.762 16.0692 114.95 14.6239 113.505C13.1787 112.06 12.3667 110.1 12.3666 108.056V10.3908C12.3666 8.34696 13.1786 6.38689 14.6239 4.94171C16.0692 3.49653 18.0295 2.68462 20.0734 2.68457H24.6782C24.4519 3.24052 24.3657 3.84355 24.4272 4.44062C24.4887 5.03769 24.696 5.61051 25.0309 6.10867C25.3657 6.60683 25.8179 7.01507 26.3476 7.29749C26.8772 7.57991 27.4682 7.72784 28.0685 7.72828H49.7099C50.3102 7.72787 50.9012 7.57996 51.4309 7.29755C51.9606 7.01515 52.4128 6.60691 52.7477 6.10874C53.0826 5.61057 53.2899 5.03775 53.3514 4.44067C53.4129 3.84358 53.3267 3.24053 53.1004 2.68457H58.0303C60.0743 2.68462 62.0345 3.49653 63.4798 4.94171C64.9251 6.38689 65.7371 8.34696 65.7372 10.3908V10.3908Z" fill="white"/>
<path d="M29.9011 84.3352H29.1028L29.3693 68.7441H29.6358L29.9011 84.3352Z" fill="#E6E6E6"/>
<path d="M30.5662 58.9294L31.8547 56.9383C31.4726 55.8829 31.0312 54.8498 30.5328 53.8441L29.6996 54.5171L30.3593 53.4977C29.7305 52.2602 29.2359 51.4805 29.2359 51.4805C29.2359 51.4805 26.6521 55.552 25.7884 59.8636L27.4418 62.4187L25.6117 60.9404C25.5466 61.4426 25.513 61.9484 25.5114 62.4548C25.5114 67.5607 27.1791 71.6997 29.2362 71.6997C31.2934 71.6997 32.9611 67.5601 32.9611 62.4548C32.9611 60.872 32.6029 59.216 32.1083 57.684L30.5662 58.9294Z" fill="#CCCCCC"/>
<path d="M50.6823 84.3352H49.884L50.1506 68.7441H50.4171L50.6823 84.3352Z" fill="#E6E6E6"/>
<path d="M51.3473 58.9294L52.6358 56.9383C52.2537 55.8829 51.8123 54.8498 51.3139 53.8441L50.4807 54.5171L51.1404 53.4977C50.5116 52.2602 50.017 51.4805 50.017 51.4805C50.017 51.4805 47.4328 55.5524 46.57 59.8636L48.2222 62.4184L46.3921 60.94C46.327 61.4422 46.2934 61.948 46.2917 62.4544C46.2917 67.5603 47.9594 71.6994 50.0166 71.6994C52.0738 71.6994 53.7415 67.5598 53.7415 62.4544C53.7415 60.8716 53.3833 59.2156 52.8887 57.6836L51.3473 58.9294Z" fill="#CCCCCC"/>
<path d="M29.2935 32.6543C33.3443 32.6543 36.6281 29.3707 36.6281 25.3203C36.6281 21.2699 33.3443 17.9863 29.2935 17.9863C25.2427 17.9863 21.9589 21.2699 21.9589 25.3203C21.9589 29.3707 25.2427 32.6543 29.2935 32.6543Z" fill="#E6E6E6"/>
<path d="M39.4525 82.0664H37.8066L38.3553 49.9189H38.9038L39.4525 82.0664Z" fill="#E6E6E6"/>
<path d="M40.8241 29.6796L43.4809 25.5744C42.693 23.3982 41.783 21.2681 40.7551 19.1943L39.0371 20.5817L40.3975 18.4796C39.1004 15.928 38.0811 14.3203 38.0811 14.3203C38.0811 14.3203 32.7528 22.716 30.9726 31.6053L34.3811 36.8739L30.6068 33.8257C30.4724 34.8612 30.4032 35.9041 30.3998 36.9483C30.3998 47.4762 33.8384 56.0106 38.0802 56.0106C42.3219 56.0106 45.7606 47.4762 45.7606 36.9483C45.7606 33.6846 45.0221 30.2701 44.0035 27.1114L40.8241 29.6796Z" fill="#CCCCCC"/>
<path d="M65.737 86.6992V108.553C65.737 112.986 62.2866 116.579 58.0301 116.579H20.0731C15.8168 116.579 12.3663 112.986 12.3661 108.553V88.8297C18.947 80.7848 28.4619 75.9766 38.6026 75.5717C48.7434 75.1668 58.584 79.2023 65.737 86.6992Z" fill="#E6E6E6"/>
<path opacity="0.2" d="M39.0931 108.257C45.2957 108.257 50.3239 103.23 50.3239 97.0276C50.3239 90.8256 45.2957 85.7979 39.0931 85.7979C32.8905 85.7979 27.8623 90.8256 27.8623 97.0276C27.8623 103.23 32.8905 108.257 39.0931 108.257Z" fill="#38972E"/>
<path d="M39.0931 106.07C44.0874 106.07 48.1361 102.021 48.1361 97.0276C48.1361 92.0337 44.0874 87.9854 39.0931 87.9854C34.0988 87.9854 30.05 92.0337 30.05 97.0276C30.05 102.021 34.0988 106.07 39.0931 106.07Z" fill="#38972E"/>
<path d="M38.0385 100.894L34.8514 96.7969L36.7048 95.3555L38.2137 97.2954L43.3111 91.915L45.0158 93.5297L38.0385 100.894Z" fill="white"/>
<path d="M87.1494 82.9631C90.3877 82.9631 93.0129 80.3382 93.0129 77.1002C93.0129 73.8622 90.3877 71.2373 87.1494 71.2373C83.9112 71.2373 81.286 73.8622 81.286 77.1002C81.286 80.3382 83.9112 82.9631 87.1494 82.9631Z" fill="#2F2E41"/>
<path d="M89.5256 110.014L89.9773 112.145L98.4118 111.416L97.7453 108.271L89.5256 110.014Z" fill="#FFB8B8"/>
<path d="M88.8689 116.673L87.4496 109.976L90.0372 109.428L90.9082 113.537C90.9802 113.877 90.9846 114.228 90.921 114.569C90.8575 114.91 90.7274 115.236 90.538 115.527C90.3487 115.818 90.1038 116.07 89.8174 116.266C89.531 116.463 89.2087 116.601 88.8689 116.673Z" fill="#2F2E41"/>
<path d="M84.2416 109.9L83.2923 111.861L75.2789 109.133L76.6801 106.239L84.2416 109.9Z" fill="#FFB8B8"/>
<path d="M82.0548 112.992L83.8856 109.211L86.2663 110.364L83.2828 116.525C82.6514 116.219 82.1674 115.675 81.9371 115.013C81.7067 114.35 81.7491 113.623 82.0548 112.992V112.992Z" fill="#2F2E41"/>
<path d="M68.4528 106.028C68.7271 106.079 69.0093 106.07 69.2795 106C69.5497 105.93 69.8013 105.802 70.0166 105.625C70.2318 105.447 70.4056 105.224 70.5256 104.973C70.6455 104.721 70.7088 104.445 70.7109 104.166L83.9257 91.9839L80.644 89.4424L68.6795 102.224C68.2103 102.251 67.7675 102.45 67.4349 102.782C67.1024 103.114 66.9033 103.556 66.8753 104.025C66.8474 104.494 66.9926 104.957 67.2834 105.327C67.5742 105.696 67.9903 105.945 68.453 106.028L68.4528 106.028Z" fill="#FFB8B8"/>
<path d="M86.4136 83.2282C88.8237 83.2282 90.7775 81.2745 90.7775 78.8646C90.7775 76.4546 88.8237 74.501 86.4136 74.501C84.0034 74.501 82.0496 76.4546 82.0496 78.8646C82.0496 81.2745 84.0034 83.2282 86.4136 83.2282Z" fill="#FFB8B8"/>
<path d="M90.3301 104.515C87.2688 104.515 83.5821 103.871 81.3076 101.233L81.2565 101.173L81.3098 101.115C81.3276 101.096 83.0002 99.1839 81.3295 95.7741L79.0321 96.4807L76.7454 93.4624L78.0122 89.6623L83.1964 85.4872C83.9391 84.8921 84.8434 84.5336 85.7921 84.4582C87.5093 84.2922 89.182 83.8159 90.7289 83.0523C91.4368 82.7084 92.2164 82.5379 93.0033 82.5549L93.1052 82.5577C93.3445 82.5644 93.58 82.6197 93.7973 82.7201C94.0146 82.8206 94.2092 82.9641 94.3694 83.142C94.5296 83.3198 94.6519 83.5284 94.7291 83.755C94.8062 83.9816 94.8366 84.2215 94.8183 84.4601C94.4666 89.0137 93.846 100.013 95.6697 103.801L95.7168 103.899L95.6116 103.925C93.8782 104.315 92.1071 104.513 90.3304 104.515L90.3301 104.515Z" fill="#38972E"/>
<path d="M81.908 101.173C81.908 101.173 70.3588 100.107 69.115 103.483C67.8713 106.859 69.2927 108.458 71.4249 109.168C73.557 109.879 78.7097 110.767 78.7097 110.767L81.0196 107.925L87.0607 108.28C87.0607 108.28 93.7921 112.184 95.6533 116.359C96.0526 117.263 96.6894 118.041 97.4959 118.611C98.3023 119.182 99.2484 119.523 100.233 119.599C101.726 119.703 103.052 119.139 103.052 116.807C103.052 111.478 95.5893 103.838 95.5893 103.838L81.908 101.173Z" fill="#2F2E41"/>
<path d="M73.1127 106.415C73.1127 106.415 76.1332 105.527 80.9306 107.836Z" fill="#2F2E41"/>
<path d="M82.0603 76.0815C83.7646 77.1218 85.686 77.7549 87.675 77.9314L87.0831 77.2223C87.5141 77.3815 87.9675 77.4715 88.4266 77.4888C88.6564 77.4955 88.8847 77.4482 89.0929 77.3507C89.3012 77.2533 89.4838 77.1083 89.6259 76.9276C89.742 76.7399 89.811 76.5269 89.827 76.3068C89.8429 76.0867 89.8054 75.866 89.7176 75.6635C89.5373 75.2596 89.2566 74.9086 88.9022 74.6439C88.2741 74.147 87.5328 73.8133 86.7444 73.6724C85.956 73.5315 85.145 73.5878 84.3836 73.8364C83.8611 73.9923 83.3931 74.2923 83.0333 74.702C82.8565 74.9083 82.7337 75.1552 82.6759 75.4207C82.6181 75.6862 82.6272 75.9618 82.7023 76.223" fill="#2F2E41"/>
<path d="M87.1179 72.5938C87.8933 70.7934 89.054 69.1849 90.5182 67.8815C91.4585 67.0465 92.5567 66.3282 93.7957 66.1114C95.0346 65.8947 96.4312 66.266 97.1913 67.2682C97.8132 68.0877 97.929 69.1857 97.8606 70.2119C97.7922 71.2381 97.5628 72.255 97.5847 73.2826C97.6071 74.3318 97.8912 75.3588 98.4113 76.2704C98.9313 77.1819 99.6708 77.9492 100.563 78.5025C101.454 79.0558 102.47 79.3776 103.518 79.4387C104.566 79.4999 105.612 79.2984 106.562 78.8526C105.492 79.444 104.659 80.3805 103.666 81.0926C102.674 81.8047 101.363 82.2936 100.235 81.8228C99.0411 81.3253 98.4935 79.9717 98.066 78.751L96.1592 73.3073C95.8351 72.3819 95.4948 71.4291 94.8333 70.7054C94.1718 69.9818 93.0983 69.5405 92.1878 69.9044C91.4977 70.1801 91.0484 70.8385 90.6545 71.4678C90.2605 72.0971 89.8448 72.7683 89.1797 73.0986C88.5147 73.4289 87.5273 73.2256 87.31 72.515" fill="#2F2E41"/>
<path d="M88.6153 104.53C88.54 104.53 88.4648 104.526 88.39 104.517C87.8934 104.461 87.4371 104.217 87.1148 103.836C86.7925 103.454 86.6288 102.963 86.6572 102.464C86.6857 101.965 86.9042 101.496 87.2678 101.153C87.6314 100.81 88.1125 100.62 88.6123 100.621C88.6994 100.621 88.7865 100.628 88.8727 100.64L94.8389 94.2896L94.2161 92.2136L97.3433 90.8115L98.2199 92.9542C98.5139 93.6799 98.5659 94.4812 98.3684 95.2389C98.1708 95.9966 97.7342 96.6704 97.1233 97.1603L90.5561 102.384C90.563 102.447 90.5666 102.511 90.5667 102.575C90.5666 102.85 90.5086 103.122 90.3964 103.373C90.2843 103.624 90.1205 103.849 89.9157 104.032C89.5592 104.354 89.0955 104.531 88.6153 104.53V104.53Z" fill="#FFB8B8"/>
<path d="M93.2794 83.4075C93.4863 83.3155 93.7096 83.2664 93.9359 83.2629C94.1623 83.2594 94.387 83.3017 94.5966 83.3873C94.8061 83.4729 94.9962 83.5999 95.1555 83.7608C95.3147 83.9217 95.4398 84.1131 95.5232 84.3235L98.6098 92.113L93.8125 95.311L93.2794 83.4075Z" fill="#38972E"/>
</svg>
