<svg width="26" height="9" viewBox="0 0 26 9" fill="none" xmlns="http://www.w3.org/2000/svg">
<path d="M3.91748 3.75146H6.13037V4.49268H3.91748V6.78076H3.1709V4.49268H0.96875V3.75146H3.1709V1.45264H3.91748V3.75146ZM12.4038 3.49902C12.4038 6.57129 11.215 8.10742 8.8374 8.10742C8.42204 8.10742 8.09261 8.07161 7.84912 8V7.23193C8.13558 7.32503 8.46143 7.37158 8.82666 7.37158C9.68604 7.37158 10.3341 7.10661 10.771 6.57666C11.2114 6.04313 11.4513 5.22673 11.4907 4.12744H11.4263C11.2293 4.42464 10.9679 4.65202 10.6421 4.80957C10.3162 4.96354 9.94922 5.04053 9.54102 5.04053C8.84635 5.04053 8.29492 4.83285 7.88672 4.41748C7.47852 4.00212 7.27441 3.42204 7.27441 2.67725C7.27441 1.86084 7.50179 1.21631 7.95654 0.743652C8.41488 0.270996 9.01644 0.034668 9.76123 0.034668C10.2948 0.034668 10.7603 0.172526 11.1577 0.448242C11.5588 0.720378 11.8667 1.11963 12.0815 1.646C12.2964 2.16878 12.4038 2.78646 12.4038 3.49902ZM9.76123 0.797363C9.24919 0.797363 8.85352 0.962077 8.57422 1.2915C8.29492 1.62093 8.15527 2.07926 8.15527 2.6665C8.15527 3.18213 8.28418 3.58854 8.54199 3.88574C8.7998 4.17936 9.19189 4.32617 9.71826 4.32617C10.0441 4.32617 10.3431 4.25993 10.6152 4.12744C10.891 3.99495 11.1076 3.81413 11.2651 3.58496C11.4227 3.35579 11.5015 3.11589 11.5015 2.86523C11.5015 2.48926 11.4281 2.14193 11.2812 1.82324C11.1344 1.50456 10.9285 1.25391 10.6636 1.07129C10.4022 0.888672 10.1014 0.797363 9.76123 0.797363ZM14.5308 8L17.7856 0.969238H13.5049V0.147461H18.731V0.861816L15.519 8H14.5308ZM25.0366 4.06299C25.0366 5.42008 24.8218 6.43343 24.3921 7.10303C23.966 7.77262 23.3125 8.10742 22.4316 8.10742C21.5866 8.10742 20.9438 7.76546 20.5034 7.08154C20.063 6.39404 19.8428 5.38786 19.8428 4.06299C19.8428 2.69515 20.0558 1.68001 20.4819 1.01758C20.908 0.355143 21.5579 0.0239258 22.4316 0.0239258C23.2839 0.0239258 23.9302 0.369466 24.3706 1.06055C24.8146 1.75163 25.0366 2.75244 25.0366 4.06299ZM20.7451 4.06299C20.7451 5.20524 20.8794 6.03776 21.1479 6.56055C21.4165 7.07975 21.8444 7.33936 22.4316 7.33936C23.026 7.33936 23.4557 7.07617 23.7207 6.5498C23.9893 6.01986 24.1235 5.19092 24.1235 4.06299C24.1235 2.93506 23.9893 2.1097 23.7207 1.58691C23.4557 1.06055 23.026 0.797363 22.4316 0.797363C21.8444 0.797363 21.4165 1.05697 21.1479 1.57617C20.8794 2.0918 20.7451 2.92074 20.7451 4.06299Z" fill="#38972E"/>
</svg>
